<svg id="Layer_1" data-name="Layer 1" xmlns="http://www.w3.org/2000/svg" viewBox="0 0 219.2 173.9"><defs><style>.cls-1{fill:#010101;}.cls-2{fill:#663795;}</style></defs><title>DDLogo</title><path class="cls-1" d="M74.47,266.68H70.68a1,1,0,0,1-1-1V246.36a1,1,0,0,1,1-1h3.79a5,5,0,0,1,1.69.3,4.24,4.24,0,0,1,1.49.93,4.88,4.88,0,0,1,1.07,1.6,5.79,5.79,0,0,1,.42,2.3v11a5.74,5.74,0,0,1-.42,2.31,5,5,0,0,1-1.07,1.6,4.16,4.16,0,0,1-1.49.95A5,5,0,0,1,74.47,266.68Zm-2.78-2h2.78a2.52,2.52,0,0,0,1.77-.66,3.24,3.24,0,0,0,.89-2.47v-11a3.37,3.37,0,0,0-.89-2.47,2.57,2.57,0,0,0-1.77-.66H71.69Z" transform="translate(-69.68 -93.12)"/><path class="cls-1" d="M93.47,265.28a1.06,1.06,0,0,1,0,.78.85.85,0,0,1-.55.53.8.8,0,0,1-.21.08h-.19a1.13,1.13,0,0,1-.56-.14,1.06,1.06,0,0,1-.39-.46l-3.43-7.88h-3v7.48a.94.94,0,0,1-.3.71,1,1,0,0,1-.73.29,1,1,0,0,1-.7-.29.94.94,0,0,1-.3-.71V246.39a1,1,0,0,1,.3-.73,1,1,0,0,1,.7-.3h4.27a3.14,3.14,0,0,1,1.77.56,5.35,5.35,0,0,1,1.5,1.56,7.91,7.91,0,0,1,.89,2,8.34,8.34,0,0,1,.31,2.27,8.43,8.43,0,0,1-.31,2.29,8,8,0,0,1-.89,2,4.84,4.84,0,0,1-1.55,1.57Zm-8.29-9.09h3.24a1.33,1.33,0,0,0,.79-.31A3.23,3.23,0,0,0,90,255a5.46,5.46,0,0,0,.67-1.51,6,6,0,0,0,0-3.44,5.39,5.39,0,0,0-.67-1.5,2.91,2.91,0,0,0-.76-.88,1.37,1.37,0,0,0-.79-.3H85.18Z" transform="translate(-69.68 -93.12)"/><path class="cls-1" d="M101.84,267a4.32,4.32,0,0,1-3.39-1.38,5,5,0,0,1-1.2-2.72,5.24,5.24,0,0,1-.09-.89V246.36a1,1,0,0,1,.31-.7,1,1,0,0,1,.7-.3,1,1,0,0,1,.73.3,1,1,0,0,1,.3.7v15.22s0,.12,0,.31a2.9,2.9,0,0,0,0,.69,6.51,6.51,0,0,0,.23.86,2.2,2.2,0,0,0,.47.8,2.47,2.47,0,0,0,1.9.69,2.67,2.67,0,0,0,2-.71,2.6,2.6,0,0,0,.49-.76,3.75,3.75,0,0,0,.23-.82,3.28,3.28,0,0,0,.06-.89V246.39a1,1,0,0,1,1-1,1,1,0,0,1,.7.3,1,1,0,0,1,.3.73v15.27c0,.08,0,.24,0,.48a7.84,7.84,0,0,1-.1.84,4.91,4.91,0,0,1-1.24,2.61A4.45,4.45,0,0,1,101.84,267Z" transform="translate(-69.68 -93.12)"/><path class="cls-1" d="M121.3,266.28l0,0a0,0,0,0,0,0,0h0l0,0s0,0,0,0l0,0h0a0,0,0,0,1,0,0h0v0h0l0,0a.46.46,0,0,1-.23.06l-.2,0h-.14l-.09,0h0l-.08,0-.07,0-.06,0,0,0,0,0,0,0h0s0,0,0,0l0,0,0,0,0,0,0,0a.09.09,0,0,1,0-.06,0,0,0,0,1,0,0l0,0a.12.12,0,0,1,0-.09l0,0,0-.05-6.42-14.78v14.41a1,1,0,0,1-.29.7,1,1,0,0,1-.72.3,1,1,0,0,1-.7-.3,1,1,0,0,1-.3-.7V246.1h0V246l0,0v-.06a0,0,0,0,0,0,0s0,0,0,0,0,0,0,0v0h0v0a0,0,0,0,1,0,0v0l0,0,0,0s0,0,0,0,0,0,0,0,0,0,0,0a0,0,0,0,0,0,0h0l0,0,0,0a0,0,0,0,0,0,0h0l0,0h0l0,0h0a.17.17,0,0,1,.12-.06.23.23,0,0,0,.11,0h0a.6.6,0,0,1,.23,0h.09a0,0,0,0,1,0,0h.11l.06,0,0,0h0l0,0,.06,0h0a0,0,0,0,0,0,0l0,0h0v0h0a0,0,0,0,0,0,0,0,0,0,0,0,0,0,.09.09,0,0,1,0,.06s0,0,0,0h0v0h0v0a0,0,0,0,0,0,0v0l0,0s0,0,0,0,0,0,0,0l0,.06,6.42,14.82V246.27a1,1,0,0,1,.29-.7.94.94,0,0,1,.71-.3,1,1,0,0,1,.7.3,1,1,0,0,1,.3.7v19.49l0,0v.09l0,0v0a0,0,0,0,0,0,0v0l0,0v0a0,0,0,0,0,0,0v0h0v0l0,0s0,0,0,0,0,0,0,0S121.3,266.26,121.3,266.28Z" transform="translate(-69.68 -93.12)"/><path class="cls-1" d="M136.9,265.78a1,1,0,0,1-.5.59,1,1,0,0,1-.46.11,1.08,1.08,0,0,1-.53-.14,1,1,0,0,1-.38-.4l-4.91-9.72L128,259.69v5.87a1,1,0,0,1-.3.72,1,1,0,0,1-.73.29,1,1,0,0,1-.7-.29,1,1,0,0,1-.3-.72V246.33a1,1,0,0,1,.3-.73,1,1,0,0,1,.7-.3,1,1,0,0,1,.73.3,1,1,0,0,1,.3.73v9.49l6.14-10a1,1,0,0,1,.63-.47,1,1,0,0,1,.77.13,1,1,0,0,1,.45.63,1,1,0,0,1-.13.77l-4.5,7.31L136.83,265A.92.92,0,0,1,136.9,265.78Z" transform="translate(-69.68 -93.12)"/><path class="cls-1" d="M149.63,265a1,1,0,0,1,.3.73,1,1,0,0,1-.3.7,1,1,0,0,1-.73.3h-7.6a1,1,0,0,1-.73-.3,1,1,0,0,1-.3-.7V246.36a1,1,0,0,1,.3-.7,1,1,0,0,1,.73-.3h7.6a1,1,0,0,1,.73.3,1,1,0,0,1,.3.7,1,1,0,0,1-.3.73,1,1,0,0,1-.73.3h-6.6v8.8h5a1,1,0,0,1,.72.3,1,1,0,0,1,.29.73,1,1,0,0,1-.29.7.92.92,0,0,1-.72.31h-5v6.42h6.6A1,1,0,0,1,149.63,265Z" transform="translate(-69.68 -93.12)"/><path class="cls-1" d="M163.74,266.28l0,0s0,0,0,0h0l0,0s0,0,0,0l0,0h0a0,0,0,0,1,0,0h0v0h0l0,0a.53.53,0,0,1-.23.06l-.2,0h-.15l-.08,0h-.06l-.07,0-.07,0-.06,0a.09.09,0,0,1-.06,0l0,0,0,0h0s0,0,0,0l0,0,0,0,0,0,0,0a.07.07,0,0,1,0-.06,0,0,0,0,1,0,0l0,0a.12.12,0,0,1,0-.09l0,0a.09.09,0,0,0,0-.05l-6.42-14.78v14.41a1,1,0,0,1-1,1,1,1,0,0,1-1-1V246.1h0V246l0,0v-.06a0,0,0,0,0,0,0s0,0,0,0,0,0,0,0v0h0v0a0,0,0,0,1,0,0v0l0,0,0,0s0,0,0,0,0,0,0,0,0,0,0,0a0,0,0,0,0,0,0h0l0,0,0,0a0,0,0,0,0,0,0h0l0,0h0l0,0h0a.17.17,0,0,1,.11-.06l.12,0h0a.56.56,0,0,1,.23,0h.08a0,0,0,0,1,0,0h.12a.05.05,0,0,0,.05,0l0,0h.06l0,0,0,0h0a0,0,0,0,0,0,0l0,0h0v0h0a0,0,0,0,0,0,0,0,0,0,0,0,0,0,.14.14,0,0,1,0,.06s0,0,0,0h0v0h0v0a0,0,0,0,0,0,0v0l0,0s0,0,0,0l0,0,0,.06L162,260.72V246.27a1,1,0,0,1,.28-.7,1,1,0,0,1,1.42,0,1,1,0,0,1,.3.7v19.49l0,0v.09l0,0v0s0,0,0,0v0l0,0v0a0,0,0,0,0,0,0v0h0v0l0,0a0,0,0,0,1,0,0s0,0,0,0S163.74,266.26,163.74,266.28Z" transform="translate(-69.68 -93.12)"/><path class="cls-1" d="M187.53,266.68h-3.78a1,1,0,0,1-.72-.3,1,1,0,0,1-.28-.7V246.36a1,1,0,0,1,.28-.7,1,1,0,0,1,.72-.3h3.78a4.94,4.94,0,0,1,1.69.3,4.16,4.16,0,0,1,1.49.93,4.9,4.9,0,0,1,1.08,1.6,6,6,0,0,1,.41,2.3v11a5.93,5.93,0,0,1-.41,2.31,5,5,0,0,1-1.08,1.6,4.08,4.08,0,0,1-1.49.95A4.94,4.94,0,0,1,187.53,266.68Zm-2.78-2h2.78a2.53,2.53,0,0,0,1.78-.66,3.24,3.24,0,0,0,.89-2.47v-11a3.37,3.37,0,0,0-.89-2.47,2.6,2.6,0,0,0-1.78-.66h-2.78Z" transform="translate(-69.68 -93.12)"/><path class="cls-1" d="M200.83,267a4.3,4.3,0,0,1-3.38-1.38,5,5,0,0,1-1.21-2.72,6.34,6.34,0,0,1-.08-.89V246.36a1,1,0,0,1,1-1,1,1,0,0,1,.73.3,1,1,0,0,1,.3.7v15.22s0,.12,0,.31a3,3,0,0,0,.06.69,4.42,4.42,0,0,0,.23.86,2.07,2.07,0,0,0,.47.8,2.43,2.43,0,0,0,1.89.69,2.69,2.69,0,0,0,2-.71,2.56,2.56,0,0,0,.48-.76,4.24,4.24,0,0,0,.29-1.71V246.39a1,1,0,0,1,.3-.73,1,1,0,0,1,.73-.3,1,1,0,0,1,.7.3,1,1,0,0,1,.31.73v15.27c0,.08,0,.24,0,.48a5.91,5.91,0,0,1-.1.84,4.83,4.83,0,0,1-1.23,2.61A4.47,4.47,0,0,1,200.83,267Z" transform="translate(-69.68 -93.12)"/><path class="cls-1" d="M220.29,266.28l0,0a0,0,0,0,0,0,0h0l0,0s0,0,0,0l0,0h0a0,0,0,0,1,0,0h0v0h0l0,0a.53.53,0,0,1-.23.06l-.2,0h-.15l-.08,0h-.06l-.07,0-.07,0-.06,0a.09.09,0,0,1-.06,0l0,0,0,0h0s0,0,0,0l0,0,0,0,0,0,0,0a.09.09,0,0,1,0-.06,0,0,0,0,1,0,0l0,0a.12.12,0,0,1,0-.09l0,0a.09.09,0,0,0,0-.05l-6.42-14.78v14.41a1,1,0,0,1-.29.7.94.94,0,0,1-.71.3,1,1,0,0,1-.71-.3,1,1,0,0,1-.3-.7V246.1h0V246l0,0v-.06a0,0,0,0,0,0,0s0,0,0,0a0,0,0,0,0,0,0v0h0v0a0,0,0,0,1,0,0v0l0,0,0,0s0,0,0,0,0,0,0,0a0,0,0,0,0,0,0,0,0,0,0,0,0,0h0l0,0,0,0a0,0,0,0,0,0,0h0l0,0h0l0,0h0a.14.14,0,0,1,.11-.06l.12,0h0a.6.6,0,0,1,.23,0h.09a0,0,0,0,1,0,0h.11a.09.09,0,0,0,.06,0l0,0h.06l0,0,.06,0h0a0,0,0,0,0,0,0l0,0h0v0h0s0,0,0,0a0,0,0,0,0,0,0,.09.09,0,0,1,0,.06s0,0,0,0h0v0h0v0a0,0,0,0,0,0,0v0l0,0s0,0,0,0,0,0,0,0l0,.06,6.42,14.82V246.27a1,1,0,0,1,.29-.7,1,1,0,0,1,.72-.3,1,1,0,0,1,1,1v19.49l0,0v.09l0,0v0a0,0,0,0,0,0,0v0l0,0v0s0,0,0,0v0h0v0l0,0a0,0,0,0,1,0,0s0,0,0,0A0,0,0,0,0,220.29,266.28Z" transform="translate(-69.68 -93.12)"/><path class="cls-1" d="M229.18,266.94a4.27,4.27,0,0,1-3.39-1.38,4.78,4.78,0,0,1-1.23-2.72c0-.32-.06-.61-.07-.86a2.62,2.62,0,0,1,0-.52V250.23a5.74,5.74,0,0,1,.42-2.29,4.82,4.82,0,0,1,1.07-1.61,4.24,4.24,0,0,1,1.49-.93,5,5,0,0,1,1.7-.3,4.51,4.51,0,0,1,3.12,1.15,5,5,0,0,1,1,1.44,5.51,5.51,0,0,1,.51,2.57,1,1,0,0,1-.3.7,1,1,0,0,1-.71.3,1,1,0,0,1-.73-.3,1,1,0,0,1-.3-.7,3.73,3.73,0,0,0-.33-1.72,2.68,2.68,0,0,0-.76-.95,2.2,2.2,0,0,0-.87-.4,3.53,3.53,0,0,0-.67-.08,2.62,2.62,0,0,0-1.78.65,3.24,3.24,0,0,0-.89,2.47v11.65a4.58,4.58,0,0,0,.06.67,5.11,5.11,0,0,0,.21.86,2.12,2.12,0,0,0,.5.81,3,3,0,0,0,3.87,0,2.45,2.45,0,0,0,.49-.78,4,4,0,0,0,.24-.8,4.59,4.59,0,0,0,.07-.89v-3.67h-2a1,1,0,0,1-1-1,1,1,0,0,1,.3-.7,1,1,0,0,1,.73-.3h4v5.62a2.65,2.65,0,0,1,0,.48,7.87,7.87,0,0,1-.1.86,5.38,5.38,0,0,1-1.24,2.58A4.5,4.5,0,0,1,229.18,266.94Z" transform="translate(-69.68 -93.12)"/><path class="cls-1" d="M247.45,265a1,1,0,0,1,.3.73,1,1,0,0,1-.3.7,1,1,0,0,1-.74.3h-7.59a1,1,0,0,1-.73-.3,1,1,0,0,1-.3-.7V246.36a1,1,0,0,1,.3-.7,1,1,0,0,1,.73-.3h7.59a1,1,0,0,1,.74.3,1,1,0,0,1,.3.7,1,1,0,0,1-.3.73,1,1,0,0,1-.74.3h-6.59v8.8h5a1,1,0,0,1,.72.3,1,1,0,0,1,.28.73,1,1,0,0,1-.28.7.92.92,0,0,1-.72.31h-5v6.42h6.59A1,1,0,0,1,247.45,265Z" transform="translate(-69.68 -93.12)"/><path class="cls-1" d="M256,267a4.33,4.33,0,0,1-3.41-1.37,5.05,5.05,0,0,1-1.2-2.72,5.34,5.34,0,0,1-.09-.89,3,3,0,0,1,0-.52v-11.2a6,6,0,0,1,.41-2.3,5,5,0,0,1,1.08-1.62,4,4,0,0,1,1.49-.94,4.94,4.94,0,0,1,1.69-.3,6.35,6.35,0,0,1,1.4.2,4,4,0,0,1,1.75.94c.19.17.38.38.58.6a3.83,3.83,0,0,1,.51.85,7.09,7.09,0,0,1,.39,1.13,6.21,6.21,0,0,1,.16,1.44V262.2a4.73,4.73,0,0,1-.09.84,5.13,5.13,0,0,1-1.23,2.61A4.52,4.52,0,0,1,256,267Zm-2.67-5.38V262a4.82,4.82,0,0,0,.06.69,4.54,4.54,0,0,0,.22.86,2,2,0,0,0,.5.8A2.43,2.43,0,0,0,256,265a2.61,2.61,0,0,0,2-.72,2.44,2.44,0,0,0,.48-.76,3.89,3.89,0,0,0,.25-.78,3.25,3.25,0,0,0,.07-.63V250.32a3.53,3.53,0,0,0-.34-1.71,2.67,2.67,0,0,0-.81-.93,2.23,2.23,0,0,0-.93-.4,4.12,4.12,0,0,0-.7-.09,2.53,2.53,0,0,0-1.78.66,3.23,3.23,0,0,0-.89,2.47v11.32Z" transform="translate(-69.68 -93.12)"/><path class="cls-1" d="M274.75,266.28l0,0a0,0,0,0,0,0,0h0l0,0s0,0,0,0l0,0h0s0,0,0,0h0v0h0l0,0a.49.49,0,0,1-.23.06l-.2,0h-.14l-.09,0h-.06l-.07,0-.07,0-.06,0a.05.05,0,0,1-.05,0l0,0,0,0h0s0,0,0,0l0,0,0,0,0,0,0,0a.09.09,0,0,1,0-.06,0,0,0,0,1,0,0l0,0a.12.12,0,0,1,0-.09l0,0a.09.09,0,0,0,0-.05l-6.42-14.78v14.41a1,1,0,0,1-.28.7,1,1,0,0,1-1.72-.7V246.1h0V246l0,0v-.06s0,0,0,0,0,0,0,0,0,0,0,0v0h0v0a0,0,0,0,1,0,0v0l0,0,0,0s0,0,0,0,0,0,0,0,0,0,0,0a0,0,0,0,0,0,0h0l0,0,0,0a0,0,0,0,0,0,0h0l0,0h0l0,0h0a.17.17,0,0,1,.12-.06l.11,0h0a.56.56,0,0,1,.23,0h.08a0,0,0,0,1,0,0h.12a.09.09,0,0,0,.06,0l0,0h.06l0,0,.06,0h0s0,0,0,0l0,0h0v0h0a43904308397,43904308397,0,0,0,.06.06.09.09,0,0,1,0,.06s0,0,0,0h0v0h0v0a0,0,0,0,0,0,0v0l0,0s0,0,0,0a0,0,0,0,1,0,0l0,.06L273,260.72V246.27a1,1,0,0,1,.28-.7,1,1,0,0,1,1.42,0,1,1,0,0,1,.3.7v19.49l0,0v.09l0,0v0a0,0,0,0,0,0,0v0l0,0v0a0,0,0,0,0,0,0v0h0v0l0,0a0,0,0,0,1,0,0s0,0,0,0S274.75,266.26,274.75,266.28Z" transform="translate(-69.68 -93.12)"/><path class="cls-1" d="M283.72,266.8a4.75,4.75,0,0,1-5-5.08.94.94,0,0,1,.3-.71,1,1,0,0,1,.73-.29.94.94,0,0,1,.69.29,1,1,0,0,1,.29.71,3.81,3.81,0,0,0,.27,1.55,2.33,2.33,0,0,0,.7.93,2.67,2.67,0,0,0,1,.46,4.19,4.19,0,0,0,1.05.13,6,6,0,0,0,.81-.07,2.75,2.75,0,0,0,1.05-.39,2.93,2.93,0,0,0,.9-.92,3.08,3.08,0,0,0,.39-1.69,5.3,5.3,0,0,0-.3-1.86,4.83,4.83,0,0,0-.83-1.43,7.92,7.92,0,0,0-1.22-1.16c-.46-.36-.95-.72-1.46-1.08s-.93-.67-1.39-1a8.58,8.58,0,0,1-1.28-1.2,5.53,5.53,0,0,1-1.37-3.64c0-.08,0-.23,0-.46a5.55,5.55,0,0,1,.1-.81,4.68,4.68,0,0,1,1.15-2.43,4.56,4.56,0,0,1,3.46-1.35,4.31,4.31,0,0,1,3.41,1.35,3.76,3.76,0,0,1,.69,1.12,4.65,4.65,0,0,1,.32,1.37,5.71,5.71,0,0,1,0,.88,1.76,1.76,0,0,1,0,.41,5.86,5.86,0,0,1-.2.66,1.68,1.68,0,0,1-.35.4.74.74,0,0,1-.6.12.79.79,0,0,1-.57-.3,1.37,1.37,0,0,1-.23-.51,1.46,1.46,0,0,1,0-.66,2.49,2.49,0,0,0,0-.77c0-.21-.1-.44-.17-.7a2,2,0,0,0-.37-.7,2.36,2.36,0,0,0-1.9-.69,2.52,2.52,0,0,0-2,.74,2.16,2.16,0,0,0-.48.72,4.58,4.58,0,0,0-.21.72,2.53,2.53,0,0,0-.06.77v.09a3.57,3.57,0,0,0,.23,1.29,3.79,3.79,0,0,0,.65,1.06,7.71,7.71,0,0,0,1,1c.39.31.83.65,1.33,1s1.1.75,1.62,1.17a9.55,9.55,0,0,1,1.48,1.44,6.88,6.88,0,0,1,1.54,4.5,5.33,5.33,0,0,1-.44,2.28,4.63,4.63,0,0,1-1.17,1.58,4.94,4.94,0,0,1-1.67.91A6.06,6.06,0,0,1,283.72,266.8Z" transform="translate(-69.68 -93.12)"/><path class="cls-2" d="M139.83,159.9c-26.85-9.17-45.07,0-45.07,0v63.28l58.41-31.64,58.4-31.64-23.13-12.8S166.68,169.07,139.83,159.9Z" transform="translate(-69.68 -93.12)"/><path class="cls-1" d="M265.35,156.84,208.59,125.2l-.07,0L148.83,93.53a3.58,3.58,0,0,0-5.23,3.09v22L96.33,93.53,93,99.72l52.41,27.86.1.07.8.41,4.49,2.39v0l1.82.95,29.7,16.41c-7,5.34-23,15.07-41.29,8.83-27.92-9.54-46.89-.22-47.69.19a3.55,3.55,0,0,0-2,3.12v63.28a3.57,3.57,0,0,0,1.76,3,3.78,3.78,0,0,0,1.84.49,3.47,3.47,0,0,0,1.68-.43L155,194.62,213.3,163a3.5,3.5,0,0,0,0-6.14l-16.53-9.16c6.81-1.1,19.82-.48,41.77,10.1a56.49,56.49,0,0,0,13.63,4.37L145.69,220.1l3.33,6.16,58.69-31.65L265.35,163h0a3.49,3.49,0,0,0,0-6.12Zm-113.8,31.62L98.37,217.29V162.23c5.29-1.88,20.09-5.94,40.38,1a45.46,45.46,0,0,0,14.67,2.45c17.29,0,30.7-10,35.6-14.28l15.29,8.48Zm50.31-48.26c-6.9,0-11.21,1.56-13.59,2.83L156,125.2s0,0,0,0l-5.15-2.73v-20l54.45,28.89,34.45,19.23C222.52,142.53,210.27,140.2,201.86,140.2Z" transform="translate(-69.68 -93.12)"/><circle class="cls-1" cx="30.71" cy="47.24" r="8.31"/><circle class="cls-2" cx="40.25" cy="29.18" r="4.24"/><circle class="cls-1" cx="25.08" cy="20.03" r="1.55"/></svg>