<svg xmlns="http://www.w3.org/2000/svg" viewBox="0 0 58.42 59.5"><defs><style>.cls-1{fill:#fff;}</style></defs><title>navAD</title><g id="Layer_2" data-name="Layer 2"><g id="Nav"><path class="cls-1" d="M58.2.74,58.15.67a.54.54,0,0,0-.76,0l-.17.17a.56.56,0,0,0,0-.44.56.56,0,0,0,0-.12A.54.54,0,0,0,56.4.08a32.61,32.61,0,0,1-5.48,2.65,3.78,3.78,0,0,0-1.16.6A3.94,3.94,0,0,0,48.7,6.49l0,2.37a.53.53,0,0,0,.36.51l-2.49,2.49a16.87,16.87,0,0,0-9-4.63,16.23,16.23,0,0,0-11.5,2.46c-.62.4-1.22.82-1.81,1.24A20.57,20.57,0,0,1,20,13.44a4.59,4.59,0,0,1-3.38,0,2.74,2.74,0,0,1-1.73-2.36A2.06,2.06,0,0,1,16.77,9a.55.55,0,0,0,.5-.59A.55.55,0,0,0,16.68,8a3.16,3.16,0,0,0-2.87,3.21,3.79,3.79,0,0,0,2.39,3.32,5.65,5.65,0,0,0,4,0h0l.09,0a15.56,15.56,0,0,0,3.63-2c2-1.38,4.24-2.73,7.1-2.86,4.57-.22,8.85,1.47,12.71,5L23.92,34.48Q19.74,28.35,15,21a.56.56,0,0,0-.27-.21l-2.41-4.54a.54.54,0,1,0-.95.5l10.48,19.8-6.28,6.28h0a.68.68,0,0,0-.32-.06,6,6,0,0,0-3.56,1.4.53.53,0,0,0-.08.64.6.6,0,0,0,.21.21A26.89,26.89,0,0,0,5.6,49.6,21.91,21.91,0,0,0,0,58.81a.55.55,0,0,0,.23.61.51.51,0,0,0,.29.08.5.5,0,0,0,.36-.14c.93-.84,1.85-1.72,2.75-2.59a.62.62,0,0,0,.07.23.53.53,0,0,0,.45.23l.17,0a38.24,38.24,0,0,0,5.4-2.3,2.68,2.68,0,0,0,.75-.52,2.55,2.55,0,0,0,.52-.92c.06-.14.1-.28.16-.42a1.2,1.2,0,0,0,0,.2.54.54,0,0,0,.22.54.5.5,0,0,0,.31.1.64.64,0,0,0,.27-.07,5.08,5.08,0,0,0,1.58-1.66,16.41,16.41,0,0,0,2.25-5.39l.12.15a.53.53,0,0,0,.43.22l.18,0a.55.55,0,0,0,.36-.53,8.26,8.26,0,0,0-.64-2.86l0,0a.76.76,0,0,0,.16-.11l6-6,9,17.06h0a.65.65,0,0,0,.13.16l.05,0,.05,0a.54.54,0,0,0,.25.06h0a.49.49,0,0,0,.23-.06h0a.65.65,0,0,0,.16-.13h0A20.55,20.55,0,0,1,33.93,53c.51-.49,1-1,1.49-1.54a.48.48,0,0,0,.27-.82c-3.28-4.11-7-9.22-11.15-15.27l20-20,.11.11c4.11,4.1,6.07,8.68,5.83,13.62C50.37,32,49,34.17,47.64,36.2a15.44,15.44,0,0,0-2,3.64l0,.08h0a5.71,5.71,0,0,0,0,4A3.79,3.79,0,0,0,49,46.34h.1a3.19,3.19,0,0,0,3.11-2.88.54.54,0,0,0-1.08-.09A2.09,2.09,0,0,1,49,45.26a2.74,2.74,0,0,1-2.36-1.73,4.6,4.6,0,0,1,0-3.4,20.39,20.39,0,0,1,2.5-4.22c.42-.59.84-1.19,1.24-1.81a16.23,16.23,0,0,0,2.46-11.5,17.45,17.45,0,0,0-5.48-9.89l-.11-.11,2.73-2.73a.55.55,0,0,0,0-.77A.59.59,0,0,0,49.73,9s0,0,0-.07l0-2.38a3.11,3.11,0,0,1,.67-2.34,3.21,3.21,0,0,1,.89-.43c.94-.36,1.86-.75,2.77-1.19l-2,2.05H52a1.36,1.36,0,0,0-1.26,1,1.36,1.36,0,0,0,.19,1.06,1,1,0,0,0,.08.14h0l0,0,.11.08a1.3,1.3,0,0,0,.18.15s.06,0,.09,0a1.41,1.41,0,0,0,.57.14,1.57,1.57,0,0,0,.37,0,1.37,1.37,0,0,0,1-.91c0-.07,0-.14,0-.21a1,1,0,0,1,0-.12s.1-.12.16-.18l2.52-2.4a14.44,14.44,0,0,0-.94,2.5l-.08.28a4.29,4.29,0,0,1-.34,1,2.93,2.93,0,0,1-1.65,1.3,10.32,10.32,0,0,1-2.37.42.53.53,0,0,0-.48.59.53.53,0,0,0,.53.48h.05a10.21,10.21,0,0,0,2.64-.48,4,4,0,0,0,2.24-1.81,5.22,5.22,0,0,0,.43-1.26l.07-.27a21.15,21.15,0,0,1,2.13-4.7A.53.53,0,0,0,58.2.74ZM12.61,51.56l-.19.29a18.53,18.53,0,0,0,.07-2.58.54.54,0,0,0-.56-.51h0a.53.53,0,0,0-.58.38c-.37,1.33-.8,2.64-1.29,3.92a2,2,0,0,1-.3.57,1.82,1.82,0,0,1-.47.3,35.74,35.74,0,0,1-3.5,1.6A24.53,24.53,0,0,0,7.2,53.21l.11-.14.15-.15a.57.57,0,0,0,.08-.13,48.8,48.8,0,0,1,5.87-6.07.54.54,0,0,0-.7-.82A50.16,50.16,0,0,0,6.83,52a.51.51,0,0,0-.3.26l-.19.32c-1.47,1.55-3,3.07-4.55,4.54a21.32,21.32,0,0,1,4.58-6.71A26.91,26.91,0,0,1,15,44.67a.51.51,0,0,0,.21-.17.52.52,0,0,0,.11-.1l.19.55a.54.54,0,0,0-.57.46A15.31,15.31,0,0,1,12.61,51.56ZM19.75,30.2q1.74,2.63,3.4,5.05l-.48.48ZM34.5,50.88c-.41.46-.86.92-1.32,1.35S32.41,53,32,53.4L23.2,36.73l.57-.57Q29.73,44.85,34.5,50.88ZM31.3,8.57a14.31,14.31,0,0,1,6.06-.28,15.74,15.74,0,0,1,8.42,4.33l-1.25,1.25C40.52,10.22,36.07,8.43,31.3,8.57Zm15.38,4.9c3.06,3.07,4.52,5.68,5.18,9.32a14.31,14.31,0,0,1-.28,6.06c.15-5.14-1.9-9.9-6.14-14.14l-.12-.11,1.24-1.24Zm5.64-7.53a.31.31,0,0,1-.23.18.34.34,0,0,1-.25,0,.3.3,0,0,1-.08-.25c0-.09.13-.18.31-.18a1.46,1.46,0,0,0,.34,0c0,.07,0,.14-.06.19Z"/></g></g></svg>