<svg xmlns="http://www.w3.org/2000/svg" viewBox="0 0 23.18 25.26"><defs><style>.cls-1{fill:#fff;}</style></defs><title>navContact</title><g id="Layer_2" data-name="Layer 2"><g id="Nav"><path class="cls-1" d="M16.85.87A12.2,12.2,0,0,1,22.07,5.5a7.16,7.16,0,0,1,1.05,4.81A7.43,7.43,0,0,1,19,16.25c-1.13.55-2.45,1.18-3.72.73-1.09-.36-2.13-1.22-3.31-1a7.29,7.29,0,0,1-2.77.41,3.42,3.42,0,0,1-3.36-2.45A6.38,6.38,0,0,1,8.05,8c.82-.68,1.68-1.54,2.77-1.59A4.55,4.55,0,0,1,14.27,8a20.59,20.59,0,0,1,1.22,1.68,6,6,0,0,1-.18,2.86c-.09.59-.32,1.31.09,1.81a2.91,2.91,0,0,0,3.68-.4,6.31,6.31,0,0,0,1.54-4.63,5.86,5.86,0,0,0-1.45-4A9,9,0,0,0,14,2.28a8.06,8.06,0,0,0-3.35.09,11.74,11.74,0,0,0-5.36,3.4A11.22,11.22,0,0,0,4.15,18.25a7.29,7.29,0,0,0,3.94,3.5,13.33,13.33,0,0,0,4.5,1.18,9.65,9.65,0,0,0,5.63-1.59c.81-.46,1.45-1.32,2.4-1.59a.69.69,0,0,1,.95.68,2.62,2.62,0,0,1-1.67,2.18,16.55,16.55,0,0,1-4.13,2.09,12.71,12.71,0,0,1-4.91.54,20,20,0,0,1-5.31-1.86A10.3,10.3,0,0,1,.47,16.89,10.1,10.1,0,0,1,0,13.17,11.13,11.13,0,0,1,.83,8.45,12.1,12.1,0,0,1,4.65,3.27C6.78,1.46,9.37,0,12.22,0A10.08,10.08,0,0,1,16.85.87ZM10.91,8.63A4.52,4.52,0,0,0,8.23,12a1.67,1.67,0,0,0,.86,2.09,2.21,2.21,0,0,0,2.82-.32,6.89,6.89,0,0,0,.95-3.41A1.63,1.63,0,0,0,11.5,8.54,2.09,2.09,0,0,0,10.91,8.63Z"/></g></g></svg>