<svg xmlns="http://www.w3.org/2000/svg" viewBox="0 0 22.96 22.96"><defs><style>.cls-1{fill:#fff;}</style></defs><title>navInsta</title><g id="Layer_2" data-name="Layer 2"><g id="Nav"><path class="cls-1" d="M11.48,6A5.47,5.47,0,1,0,17,11.48,5.47,5.47,0,0,0,11.48,6Z"/><path class="cls-1" d="M16.83,0H6.14A6.14,6.14,0,0,0,0,6.13v10.7A6.13,6.13,0,0,0,6.14,23H16.83A6.12,6.12,0,0,0,23,16.83V6.14A6.13,6.13,0,0,0,16.83,0ZM11.48,18.71a7.23,7.23,0,1,1,7.23-7.23A7.23,7.23,0,0,1,11.48,18.71ZM18.37,6a1,1,0,1,1,1-1A1,1,0,0,1,18.37,6Z"/></g></g></svg>