<svg xmlns="http://www.w3.org/2000/svg" viewBox="0 0 56.87 34.81"><title>behance</title><g id="Layer_2" data-name="Layer 2"><g id="Layer_1-2" data-name="Layer 1"><path d="M16.11,0a21.16,21.16,0,0,1,4.46.43A9.78,9.78,0,0,1,24,1.84a6.63,6.63,0,0,1,2.24,2.61,9.34,9.34,0,0,1,.77,4,7.51,7.51,0,0,1-1.16,4.31,8.6,8.6,0,0,1-3.49,2.81,8.15,8.15,0,0,1,4.69,3.19,9.45,9.45,0,0,1,1.55,5.48,9.5,9.5,0,0,1-1,4.48,8.81,8.81,0,0,1-2.7,3.1A11.82,11.82,0,0,1,21,33.6a17.42,17.42,0,0,1-4.46.57H0V0Zm-1,13.81a5.45,5.45,0,0,0,3.31-1,3.59,3.59,0,0,0,1.29-3.11,4.18,4.18,0,0,0-.42-2,3.23,3.23,0,0,0-1.16-1.19A4.75,4.75,0,0,0,16.5,6a10.19,10.19,0,0,0-1.93-.17h-7v8Zm.42,14.54a9.47,9.47,0,0,0,2.1-.21,4.91,4.91,0,0,0,1.78-.73,3.58,3.58,0,0,0,1.22-1.36,4.65,4.65,0,0,0,.45-2.21,4.42,4.42,0,0,0-1.48-3.77,6.33,6.33,0,0,0-3.92-1.13H7.53v9.41Z"/><path d="M40.65,28.24a6.07,6.07,0,0,0,4.4,1.49,6.08,6.08,0,0,0,3.55-1,4.44,4.44,0,0,0,1.82-2.2h6A11.36,11.36,0,0,1,52,32.89a12.9,12.9,0,0,1-7.17,1.92,14.31,14.31,0,0,1-5.28-.93,11.31,11.31,0,0,1-4-2.66A12.21,12.21,0,0,1,33,27.09a15.1,15.1,0,0,1-.89-5.27,14.65,14.65,0,0,1,.91-5.18,12,12,0,0,1,6.6-6.9,12.91,12.91,0,0,1,5.16-1A11.74,11.74,0,0,1,50.32,10a11,11,0,0,1,3.86,3.28,13.24,13.24,0,0,1,2.17,4.7,17.31,17.31,0,0,1,.48,5.51H39A7,7,0,0,0,40.65,28.24Zm7.81-13a5.08,5.08,0,0,0-3.84-1.38,5.69,5.69,0,0,0-2.7.56,5.39,5.39,0,0,0-1.73,1.36,5.2,5.2,0,0,0-.91,1.74A8.09,8.09,0,0,0,39,19.15H50A6.54,6.54,0,0,0,48.46,15.24Z"/><rect x="37.58" y="1.94" width="13.85" height="3.37"/></g></g></svg>