<svg xmlns="http://www.w3.org/2000/svg" viewBox="0 0 50.95 49.69"><defs><style>.cls-1{fill-rule:evenodd;}</style></defs><title>github</title><g id="Layer_2" data-name="Layer 2"><g id="Layer_1-2" data-name="Layer 1"><path class="cls-1" d="M25.47,0a25.48,25.48,0,0,0-8,49.65c1.28.23,1.74-.55,1.74-1.23s0-2.21,0-4.33c-7.09,1.54-8.58-3.42-8.58-3.42C9.39,37.73,7.72,37,7.72,37c-2.32-1.58.17-1.55.17-1.55A5.34,5.34,0,0,1,11.79,38c2.28,3.9,6,2.77,7.42,2.12a5.44,5.44,0,0,1,1.62-3.41c-5.66-.64-11.61-2.82-11.61-12.59a9.83,9.83,0,0,1,2.62-6.83,9.21,9.21,0,0,1,.25-6.74s2.14-.69,7,2.61a24.06,24.06,0,0,1,12.75,0c4.87-3.3,7-2.61,7-2.61a9.18,9.18,0,0,1,.26,6.74,9.83,9.83,0,0,1,2.62,6.83c0,9.79-6,11.94-11.64,12.57a6.08,6.08,0,0,1,1.73,4.72c0,3.41,0,6.16,0,7s.46,1.47,1.75,1.23A25.48,25.48,0,0,0,25.47,0Z"/></g></g></svg>