<svg xmlns="http://www.w3.org/2000/svg" viewBox="0 0 50.78 50.78"><title>linked</title><g id="Layer_2" data-name="Layer 2"><g id="Layer_1-2" data-name="Layer 1"><path d="M47,0H3.75A3.71,3.71,0,0,0,0,3.66V47.12a3.71,3.71,0,0,0,3.75,3.66H47a3.71,3.71,0,0,0,3.75-3.66V3.66A3.71,3.71,0,0,0,47,0Zm-32,43.27H7.53V19h7.53ZM11.3,15.73a4.37,4.37,0,1,1,4.36-4.37A4.37,4.37,0,0,1,11.3,15.73Zm32,27.54H35.75V31.49c0-2.81,0-6.43-3.92-6.43s-4.52,3.07-4.52,6.23v12H19.79V19H27v3.31h.1a7.94,7.94,0,0,1,7.13-3.91c7.63,0,9,5,9,11.54Z"/></g></g></svg>