<svg xmlns="http://www.w3.org/2000/svg" viewBox="0 0 70.75 54.12"><defs><style>.cls-1{fill:#fff;}</style></defs><title>camIcon_1</title><g id="Layer_2" data-name="Layer 2"><g id="Layer_1-2" data-name="Layer 1"><path class="cls-1" d="M67.31,8.65H47.6V4.23a2.64,2.64,0,0,0-2.53-2.75H27A2.64,2.64,0,0,0,24.5,4.23V8.65H4.79a3.6,3.6,0,0,0-3.44,3.74v38a3.6,3.6,0,0,0,3.44,3.74H67.31a3.6,3.6,0,0,0,3.44-3.74v-38A3.6,3.6,0,0,0,67.31,8.65Z"/><path d="M66,7.17H46.26V2.75A2.65,2.65,0,0,0,43.72,0h-18a2.65,2.65,0,0,0-2.54,2.75V7.17H3.44A3.6,3.6,0,0,0,0,10.91v38a3.59,3.59,0,0,0,3.44,3.73H66a3.6,3.6,0,0,0,3.45-3.73v-38A3.61,3.61,0,0,0,66,7.17Z"/><circle class="cls-1" cx="34.7" cy="29.91" r="17.56"/><circle class="cls-1" cx="59.14" cy="14.52" r="2.17"/><circle cx="34.7" cy="29.91" r="14.98"/><ellipse class="cls-1" cx="39.85" cy="23.76" rx="3.09" ry="5.64" transform="translate(0.13 47.75) rotate(-61.93)"/><ellipse class="cls-1" cx="36.05" cy="29.51" rx="0.9" ry="1.45" transform="translate(-6.95 47.43) rotate(-61.93)"/></g></g></svg>