<svg xmlns="http://www.w3.org/2000/svg" viewBox="0 0 814.46 428.49"><defs><style>.cls-1{isolation:isolate;}.cls-2{mix-blend-mode:color-dodge;}.cls-3{fill:#fff;}</style></defs><title>FullLogo</title><g class="cls-1"><g id="Layer_2" data-name="Layer 2"><g id="Layer_2-2" data-name="Layer 2"><g class="cls-2"><path class="cls-3" d="M502.33,115.94a.86.86,0,0,0-1,.3,23.09,23.09,0,0,0-1.84,3c-.39.72-.8,1.47-1.24,2.16-.29.44-.6.89-.92,1.34q.07-.57.12-1.14a.54.54,0,0,0,0-.24,1.44,1.44,0,0,0-.49-1.43,1.27,1.27,0,0,0-1.55-.11,88,88,0,0,1-17.22,9.45c-5.06,2-10.84,4-16.31,4h-.36a61.54,61.54,0,0,0,11.4-10.62,1,1,0,0,0,.19-.91,1.52,1.52,0,0,0-.57-1.38,1.41,1.41,0,0,0-1.55-.11l-3.39,1.81c-2.44,1.32-5,2.67-7.49,3.92l-1.27.63c-3.93,2-7.34,3.67-12,2.44a117.15,117.15,0,0,1-19.68-7.59,72.77,72.77,0,0,0,16.63-3.72c2.25-.13,4.49-.28,6.74-.44,4-.28,8.19-.57,12.29-.67,5.16-.12,10.4,0,15.46.19,2.42.07,4.84.15,7.27.19a1.08,1.08,0,0,0,1.18-1.06,1.25,1.25,0,0,0-1.12-1.34,148.59,148.59,0,0,0-42.21,1c-11.66-.17-23.53-.27-35-.38h-.65c32.67-15.35,66.9-8.19,90,.64a1.27,1.27,0,0,0,1.13,0,1.44,1.44,0,0,0,.63-.92.81.81,0,0,0-.06-.94,1.49,1.49,0,0,0-.83-.86l-.11,0a40,40,0,0,0-4.15-3.49,46.19,46.19,0,0,1,6.6,4l1.31.9a1.19,1.19,0,0,0,1.63-.35,1.14,1.14,0,0,0-.16-1.6c-3.92-3.16-9.23-6.79-15.53-6.86h0a1.12,1.12,0,0,0-1.1.83,1.2,1.2,0,0,0,.51,1.37c1.26.79,2.51,1.64,3.73,2.5-30.61-10.66-62.76-8.9-88.67,5a1,1,0,0,0-.52,1.08,1.15,1.15,0,0,0,1,.91c9,.76,18.1,1.09,27.11,1-2.51.45-5.16.86-7.83,1.12a1.46,1.46,0,0,0-1.25,1.17,1.16,1.16,0,0,0,.67,1.27l3.22,1.58c7.36,3.62,15.71,7.73,23.69,9.12,3.14.54,5.89-.75,8.56-2l1-.48c2.41-1.1,4.82-2.29,7.23-3.54a98.15,98.15,0,0,1-8.25,6.64,1.46,1.46,0,0,0-.57,1.47,1.15,1.15,0,0,0,.94.92,26.35,26.35,0,0,0,5.2.5c10.78,0,22.82-5.76,31.48-11.94-.1.72-.18,1.43-.27,2.15l-.13,1.09a1.2,1.2,0,0,0,.75,1.24,1.3,1.3,0,0,0,1.53-.27c2.94-3.33,6-7.3,6.65-11.45A.85.85,0,0,0,502.33,115.94Z"/><path class="cls-3" d="M779.82,112.44c-6-.22-12-.33-17.86-.44l-2.43,0c-1,0-1.95-.07-2.94-.12a46.13,46.13,0,0,0-6.33,0,15.28,15.28,0,0,0-2.16.46c-2.05.54-4,1-5.24-.63,2.64-2.92,4-1.82,4.48-1.45l.54.42.12,0,.15.1a1.23,1.23,0,0,0,.72.3c3,.1,6,.12,9.21.08,6-.08,12.87-.18,19.65-.4a1.5,1.5,0,0,0,1.44-1.56,1.42,1.42,0,0,0-1.44-1.43h-.55c-1.73-.58-3.46-1.14-5.19-1.7-3.3-1.06-6.73-2.17-10-3.42-1.68-.64-3.37-1.47-5.16-2.34-3.48-1.7-7.08-3.46-10.73-3.83-7.86-.76-15.17,7.72-20,13.35l-.78.91a1.28,1.28,0,0,0,0,1.79,1.35,1.35,0,0,0,1.85.08c2-1.59,3.76-3.38,5.51-5.12,1.17-1.16,2.38-2.36,3.62-3.48l.13-.13c2-1.8,4.25-3.85,6.92-4.48,2.88-.68,5.4.48,8.05,1.7.56.26,1.12.52,1.68.76a128.19,128.19,0,0,0,17.12,6.05c-2.72.06-5.45.11-8.17.19l-5.24.16-2.61.08a11.72,11.72,0,0,1-6.44-1.38,5.8,5.8,0,0,0-5.55.27,4.1,4.1,0,0,0-1.8,3.6v.1a4.52,4.52,0,0,0,1.58,4c1.46,1.11,4,1.24,6.66.38,3.3-1.06,7.42-.7,11.39-.36,1.54.13,3,.26,4.36.3,3.06.09,6.12.16,9.18.23a74.11,74.11,0,0,0-15.75,6c-.52.27-1,.55-1.52.82-4.4,2.37-8.19,4.42-13.45,2.95-4.25-1.19-7.82-4-11.28-6.75l-1-.81a1.37,1.37,0,0,0-1.91.22,1.14,1.14,0,0,0,.16,1.65c5.28,4.56,11.42,9,18.06,9a14.68,14.68,0,0,0,4.29-.64,33.14,33.14,0,0,0,7.17-3.52,46.29,46.29,0,0,1,4.68-2.56,101.77,101.77,0,0,1,10-3.73c2.33-.78,4.74-1.58,7.09-2.5a.61.61,0,0,0,.18-.11,1.52,1.52,0,0,0,1.06-1.6A1.48,1.48,0,0,0,779.82,112.44Z"/><path class="cls-3" d="M725.44,113.81H707a105.17,105.17,0,0,0-2.48-18.53A74,74,0,0,0,677.22,53,77.48,77.48,0,0,0,650.6,40.29c-4.42-1.14-9-1.95-13.35-2.74-7.25-1.29-14.75-2.63-21.72-5.49l-.54-.24q-.33-.13-.66-.3c-3.46-1.81-11.54-7-11.86-16.06a12,12,0,0,1,6.2-11.29,10.87,10.87,0,0,1,11.76,1.18,1.28,1.28,0,0,0,1.28.18,1.53,1.53,0,0,0,.87-1.25A1.44,1.44,0,0,0,622,2.9,13.68,13.68,0,0,0,608.38,1a14.37,14.37,0,0,0-8.63,11.27c-1.56,10.1,5.88,17.9,13.35,21.83l.08.11.14.06.39.16.51.23.46.22c6,2.75,12.43,4.08,18.7,5.37a105.16,105.16,0,0,1,14.93,3.83c12.7,4.61,24,14.91,31.81,29,6.49,11.68,10.25,25.75,10.88,40.7H558.62c2-10.61,4.14-21.39,6.19-31.82,2.67-13.54,5.42-27.54,8-41.29,3.05-10,5.53-18.24,7.8-25.94a1.41,1.41,0,0,0-1-1.79,1.5,1.5,0,0,0-1.91,1c-7.34,22.91-14.42,46.34-21.26,69q-3.88,12.89-7.79,25.74l-1.57,5.13h-42a1.46,1.46,0,1,0,0,2.91h41.12l-11.58,38c-1.47,4.8-3.06,9.7-4.6,14.45-3.65,11.22-7.43,22.82-9.91,34.4a.79.79,0,0,0,.14.69.9.9,0,0,0,.36.26l.27.05a138.12,138.12,0,0,0,20.93.08,1.37,1.37,0,0,0,1.22.38,1.35,1.35,0,0,0,1.12-1.21c3.6-31.32,9-61.59,13.89-87.11h133a99.76,99.76,0,0,1-6.3,36.95c-5.64,14.68-14.84,26.7-25.91,33.85-7.82,5-16.3,6.9-25.27,8.86-3.89.86-7.91,1.73-11.84,2.9a49,49,0,0,0-7.07,2.68c-.18.08-.37.14-.55.21s-.55.21-.82.33a.8.8,0,0,0-.39.35c-8.17,4.35-12.77,10.48-13.31,17.73a15.23,15.23,0,0,0,7.58,14.57,13.13,13.13,0,0,0,6.36,1.66,14.17,14.17,0,0,0,8.42-2.9,1.46,1.46,0,0,0,.6-1.39,1.53,1.53,0,0,0-.87-1.25,1.25,1.25,0,0,0-1.28.18,11.25,11.25,0,0,1-10.67,1.76,11,11,0,0,1-6.92-8c-1.88-7.75,3.26-14.52,8.23-18a32.81,32.81,0,0,1,4-2.31c7.26-3,15.07-4.44,22.62-5.78,3.26-.58,6.63-1.18,9.92-1.91a78.17,78.17,0,0,0,23.85-9.5A73.09,73.09,0,0,0,702.74,148a95.19,95.19,0,0,0,4.37-31.32h18.33a1.46,1.46,0,1,0,0-2.91ZM532.68,170.5c1.35-4.66,2.75-9.47,4.2-14.13q6.14-19.81,12.29-39.65h6l-.9,4.81c-5.75,30.9-9.73,56.53-12.55,80.6-2.34.12-4.79.06-7.17,0a60.41,60.41,0,0,0-12.27.56C526.35,192.27,529.57,181.2,532.68,170.5Zm33.1-107.07c-3.94,17.89-7.28,35.27-10.11,50.38h-5.6l1.35-4.35q3.93-12.61,7.87-25.23Q562.53,73.83,565.78,63.43Zm128,50.38c-1.18-30-13.66-54.7-33.72-67.16A54.59,54.59,0,0,1,666,49.33a70.88,70.88,0,0,1,34,40.24,89.06,89.06,0,0,1,4.19,24.24Zm10.45,2.91a101.47,101.47,0,0,1-2.66,24.8,70.71,70.71,0,0,1-30.3,42.89A73.25,73.25,0,0,1,657.91,191c13.11-7.7,23.2-20,29.37-35.79a103,103,0,0,0,6.57-38.52Z"/><path class="cls-3" d="M102.91,205.82H70.69l2.16-8.66-6.77-39.27-3.52-3.52H40.08l-3.52,3.52-6.5,39.27L32,205.82H0l6-17.6L36.29,11.64,33.58,0H68.79L66.08,11.64,96.68,188ZM44.14,128.37H58l2.71-2.17-9.48-55-9.48,55Z"/><path class="cls-3" d="M132.67,205.82l3.25-12.45V12.73L132.67,0H200.1l13,12.73v90.18l-13,13,11.11,76.92,4.06,13h-32l2.18-12.18-10.84-75.29-2.17-2.44h-8.12l-3,3v74.48l3.25,12.45ZM184.4,90.18l3-3V29l-3-3h-20l-3,3V87.21l3,3Z"/><path class="cls-3" d="M282.68,205.82h-32L254,193.37V12.73L250.72,0h32l-3.25,12.73V193.37Z"/><path class="cls-3" d="M415.36,205.82H383.14l2.16-8.66-6.77-39.27L375,154.37H352.54L349,157.89l-6.5,39.27,1.89,8.66H312.45l6-17.6L348.74,11.64,346,0h35.21l-2.71,11.64L409.13,188ZM356.6,128.37h13.81l2.7-2.17-9.48-55-9.47,55Z"/><path class="cls-3" d="M133.47,222.67H200.9l13,12.73V415.77l-13,12.72H133.47l3-12.72V235.13Zm28.71,176.85,3,3h19.77l3-3V251.11l-3-3H165.16l-3,3Z"/><path class="cls-3" d="M283.49,428.49h-32L254.78,416V235.4l-3.25-12.73h32l-3.26,12.73V416Z"/><path class="cls-3" d="M321.11,415.77V235.4l13-12.73h51.45l12.73,12.73v26l3.25,12.45H369.31l3.53-12.45V251.11l-3-3H350.09l-3,3V399.52l3,3h19.76l3-3V351.31h-7.32l-5.68-26h41.7l-3.25,13v77.46l-12.73,12.72H334.11Z"/><path class="cls-3" d="M469.49,428.49h-32L440.79,416V235.4l-3.26-12.73h32l-3.25,12.73V416Z"/><path class="cls-3" d="M592.15,251.65l-13.54-3H562.09l-3,3V416l3.25,12.45H530.14L533.39,416V251.65l-3-3H513.34l-13.27,3,4.61-29h82.6Z"/><path class="cls-3" d="M702.9,428.49H670.68l2.16-8.66-6.77-39.27L662.55,377H640.07l-3.52,3.52-6.5,39.27,1.89,8.66H600l6-17.6,30.33-176.58-2.71-11.64h35.21l-2.71,11.64,30.6,176.31ZM644.14,351H658l2.7-2.17-9.48-55-9.47,55Z"/><path class="cls-3" d="M809.85,428.49H732.67L735.92,416V235.4l-3.25-12.73h32l-3,12.73V399.79l3,3h36.56l13.27-3Z"/></g></g></g></g></svg>