<svg xmlns="http://www.w3.org/2000/svg" viewBox="0 0 74.24 42.27"><title>penIcon</title><g id="Layer_2" data-name="Layer 2"><g id="Layer_2-2" data-name="Layer 2"><path d="M72.29,21.12c-7.83-.29-15.8-.43-23.51-.57l-3.2-.06c-1.27,0-2.57-.09-3.87-.16a61.1,61.1,0,0,0-8.34,0,18.45,18.45,0,0,0-2.83.6c-2.7.71-5.27,1.39-6.91-.82,3.48-3.85,5.28-2.4,5.89-1.91l.72.55.15,0a1.32,1.32,0,0,1,.2.13,1.58,1.58,0,0,0,1,.4c3.88.13,7.85.16,12.13.11,7.83-.11,16.94-.24,25.86-.54a2,2,0,0,0,1.9-2.05,1.86,1.86,0,0,0-1.9-1.88h-.72Q65.41,13.78,62,12.69c-4.35-1.4-8.86-2.86-13.21-4.51C46.57,7.34,44.34,6.25,42,5.1,37.4,2.86,32.66.54,27.86.06c-10.35-1-20,10.17-26.36,17.58l-1,1.19a1.7,1.7,0,0,0,0,2.37,1.75,1.75,0,0,0,2.42.1c2.58-2.1,5-4.46,7.26-6.74C11.71,13,13.31,11.45,14.94,10l.18-.16c2.62-2.38,5.59-5.07,9.1-5.9,3.8-.9,7.11.63,10.61,2.24.73.34,1.46.68,2.2,1a168.92,168.92,0,0,0,22.55,8c-3.59.07-7.17.15-10.76.25l-6.9.21-3.44.11A15.57,15.57,0,0,1,30,13.86a7.62,7.62,0,0,0-7.3.35A5.41,5.41,0,0,0,20.33,19v.12c-.09,2.38.61,4.15,2.08,5.26,1.92,1.45,5.2,1.64,8.77.5,4.35-1.39,9.76-.93,15-.48,2,.18,3.93.34,5.73.4,4,.11,8.06.22,12.09.3A98.15,98.15,0,0,0,43.26,33l-2,1.07c-5.79,3.12-10.78,5.83-17.7,3.89C18,36.38,13.25,32.66,8.7,29.06L7.34,28a1.8,1.8,0,0,0-2.51.3A1.5,1.5,0,0,0,5,30.45c7,6,15,11.82,23.78,11.82a19.3,19.3,0,0,0,5.65-.84,43.33,43.33,0,0,0,9.44-4.64,64.66,64.66,0,0,1,6.15-3.37,137.47,137.47,0,0,1,13.2-4.91c3.07-1,6.25-2.08,9.34-3.28a.9.9,0,0,0,.24-.15A2,2,0,0,0,74.24,23,2,2,0,0,0,72.29,21.12Z"/></g></g></svg>