<svg xmlns="http://www.w3.org/2000/svg" viewBox="0 0 81.45 81.42"><defs><style>.cls-1{fill:#fff;}.cls-2{fill:#231f20;}.cls-3{fill:#fff200;}.cls-4{fill:#00aeef;}.cls-5{fill:#ec008c;}</style></defs><title>printIcon_1</title><g id="Layer_2" data-name="Layer 2"><g id="Layer_1-2" data-name="Layer 1"><path class="cls-1" d="M69.64,39.36A28.49,28.49,0,0,0,43.07,12.8V1H39.4V12.8A28.48,28.48,0,0,0,12.84,39.36H1V43H12.84A28.49,28.49,0,0,0,39.4,69.6V81.42h3.67V69.6A28.5,28.5,0,0,0,69.64,43H81.45V39.36ZM58.33,41.2A18.29,18.29,0,0,1,58.15,43h7.51A24.51,24.51,0,0,1,43.07,65.62V58.18A17,17,0,0,0,58.22,43H43.07V58.11a18.29,18.29,0,0,1-1.83.18c-.63,0-1.23-.12-1.84-.18v7.51A24.52,24.52,0,0,1,16.81,43h7.52a15.75,15.75,0,0,1-.19-1.83,15.92,15.92,0,0,1,.19-1.84H16.81A24.53,24.53,0,0,1,39.4,16.77v7.52a15.92,15.92,0,0,1,1.84-.19,15.75,15.75,0,0,1,1.83.19V16.77A24.52,24.52,0,0,1,65.66,39.36H58.15C58.21,40,58.33,40.57,58.33,41.2Z"/><path class="cls-2" d="M42.05,42.05V57.2A17,17,0,0,0,57.2,42.05Z"/><path class="cls-3" d="M38.38,42.05H23.23A17.06,17.06,0,0,0,38.38,57.2Z"/><path class="cls-4" d="M38.38,38.38V23.23A17.07,17.07,0,0,0,23.23,38.38Z"/><path class="cls-5" d="M42.05,38.38H57.2A17.06,17.06,0,0,0,42.05,23.23Z"/><path d="M80.43,38.38H68.62A28.49,28.49,0,0,0,42.05,11.82V0H38.38V11.82A28.48,28.48,0,0,0,11.82,38.38H0v3.67H11.82A28.49,28.49,0,0,0,38.38,68.62V80.44h3.67V68.62A28.5,28.5,0,0,0,68.62,42.05H80.43ZM42.05,64.64V57.13c-.61.06-1.21.18-1.83.18s-1.23-.12-1.84-.18v7.51A24.52,24.52,0,0,1,15.79,42.05h7.52a15.75,15.75,0,0,1-.19-1.83,15.92,15.92,0,0,1,.19-1.84H15.79A24.53,24.53,0,0,1,38.38,15.79v7.52a15.92,15.92,0,0,1,1.84-.19,16,16,0,0,1,1.83.19V15.79A24.52,24.52,0,0,1,64.64,38.38H57.12a15.92,15.92,0,0,1,.19,1.84,15.75,15.75,0,0,1-.19,1.83h7.52A24.51,24.51,0,0,1,42.05,64.64Z"/><path class="cls-1" d="M42.05,23.31a16,16,0,0,0-1.83-.19,15.92,15.92,0,0,0-1.84.19V38.38H23.31a15.92,15.92,0,0,0-.19,1.84,15.75,15.75,0,0,0,.19,1.83H38.38V57.13c.61.06,1.21.18,1.84.18s1.22-.12,1.83-.18V42.05H57.12a15.75,15.75,0,0,0,.19-1.83,15.92,15.92,0,0,0-.19-1.84H42.05Z"/></g></g></svg>