<svg xmlns="http://www.w3.org/2000/svg" viewBox="0 0 64.35 64.41"><defs><style>.cls-1{fill:#6fc;}</style></defs><title>webIcon</title><g id="Layer_2" data-name="Layer 2"><g id="Layer_1-2" data-name="Layer 1"><path class="cls-1" d="M52.35,14a57.43,57.43,0,0,0-4.27-9.78A31.91,31.91,0,0,0,38.57.64,73.16,73.16,0,0,1,42.89,14Z"/><path class="cls-1" d="M39,49.2A80.93,80.93,0,0,0,40.6,35.72H23.52A80.93,80.93,0,0,0,25.16,49.2Z"/><path class="cls-1" d="M39.49,18.13H24.63A82.88,82.88,0,0,0,23.42,31.6H40.7A82.88,82.88,0,0,0,39.49,18.13Z"/><path class="cls-1" d="M21,49.2A86,86,0,0,1,19.4,35.72H9.13A59.15,59.15,0,0,0,11.85,49.2Z"/><path class="cls-1" d="M53.5,18.13H43.65A85.54,85.54,0,0,1,44.82,31.6H55.2A60.22,60.22,0,0,0,53.5,18.13Z"/><path class="cls-1" d="M43.14,49.2h9.62a59.57,59.57,0,0,0,2.3-13.48H44.72A86,86,0,0,1,43.14,49.2Z"/><path class="cls-1" d="M38.67,14A70.08,70.08,0,0,0,33.94.09C33.35.06,32.77,0,32.17,0s-1.33.06-2,.1A70.62,70.62,0,0,0,25.45,14Z"/><path class="cls-1" d="M26.16,53.31a66.74,66.74,0,0,0,4.13,11c.63,0,1.25.09,1.88.09s1.1,0,1.65-.08a66.31,66.31,0,0,0,4.14-11Z"/><path class="cls-1" d="M10.27,18.13A60.07,60.07,0,0,0,8.9,30.74c0,.29,0,.57,0,.86H19.3a85.54,85.54,0,0,1,1.17-13.47Z"/><path class="cls-1" d="M21.23,14A74.05,74.05,0,0,1,25.52.7,32,32,0,0,0,14.68,5.19,57.5,57.5,0,0,0,11.27,14Z"/><path class="cls-1" d="M42.16,53.31A73.85,73.85,0,0,1,38.6,63.77a32,32,0,0,0,9.66-3.69,57.79,57.79,0,0,0,3.11-6.77Z"/><path class="cls-1" d="M55.71,53.31c-.19.53-.45,1-.65,1.54.49-.49.95-1,1.4-1.54Z"/><path class="cls-1" d="M58.74,14a33.33,33.33,0,0,0-3.46-4.22c.52,1.39,1,2.79,1.42,4.22Z"/><path class="cls-1" d="M57,49.2H59.5a31.92,31.92,0,0,0,4.68-13.48h-5A63.44,63.44,0,0,1,57,49.2Z"/><path class="cls-1" d="M.17,35.72A31.92,31.92,0,0,0,4.85,49.2H7.51A63.36,63.36,0,0,1,5,35.72Z"/><path class="cls-1" d="M59.31,31.6h5a32.08,32.08,0,0,0-3.24-13.47H57.73A64.13,64.13,0,0,1,59.31,31.6Z"/><path class="cls-1" d="M4.78,30.74A64.5,64.5,0,0,1,6,18.13H3.24A32.08,32.08,0,0,0,0,31.6H4.82C4.81,31.31,4.78,31,4.78,30.74Z"/><path class="cls-1" d="M5.61,14H7c.28-1,.6-2,.92-3A31.7,31.7,0,0,0,5.61,14Z"/><path class="cls-1" d="M13.35,53.31a55.38,55.38,0,0,0,3.72,7.33,32,32,0,0,0,8.42,3.07A73,73,0,0,1,22,53.31Z"/><path class="cls-1" d="M9.83,55.37c-.29-.7-.65-1.35-.92-2.06h-1C8.51,54,9.15,54.71,9.83,55.37Z"/></g></g></svg>