<svg xmlns="http://www.w3.org/2000/svg" viewBox="0 0 83.39 80.46"><defs><style>.cls-1{fill:#6fc;}.cls-2{fill:#fff;}</style></defs><title>workButton</title><g id="Layer_2" data-name="Layer 2"><g id="Layer_1-2" data-name="Layer 1"><polygon class="cls-1" points="83.39 80.45 0 80.45 0 0 41.7 36 83.39 0 83.39 80.45"/><path class="cls-2" d="M19.28,68.05a4.11,4.11,0,0,1-.54-1.79c-.35-2.08-1.84-8.59-2.23-9.75-.74-2.21-.27-3.67.74-2.38.71.83,1.88,4.25,2.46,7.09.28,1.25.39,1.67.55,1.67a29.51,29.51,0,0,0,1.68-4.3c.55-1.79,1-2.71,1.29-2.71a1.25,1.25,0,0,1,.62.42c.43.42.79,1.21,1.49,3.58A23.89,23.89,0,0,0,27,64.14l.31.45.12-.29c.7-1.87.82-3.71,1.56-6.58.35-1.46.82-2.88.9-3.17.15-.67.43-1,.82-1a1.21,1.21,0,0,1,.78.37c.31.25.35.34.31.79,0,.3-.39,1.59-.78,2.84a59.81,59.81,0,0,0-2.15,10.21c-.08.46-.54.75-1.17.75-.86,0-.94-.12-2.85-5.17-1-2.62-1.06-2.75-1.33-2.75s-.35.09-.82,1.42a44.62,44.62,0,0,0-1.64,5.38,2.39,2.39,0,0,1-.23.71.69.69,0,0,1-.75.41C19.71,68.51,19.6,68.47,19.28,68.05Z"/><path class="cls-2" d="M34.68,64a8,8,0,0,1-.28-2.88c0-2.29.16-3.21.82-4.37A7.56,7.56,0,0,1,38,54.09a3.67,3.67,0,0,1,3.79.12,6.45,6.45,0,0,1,3.2,4,17.72,17.72,0,0,1,.16,5.13c-.55,2.55-2,4.34-4.18,4.88a4.12,4.12,0,0,1-2.46,0A5.65,5.65,0,0,1,34.68,64Zm8.75-3.46a3.83,3.83,0,0,0-.35-2,5.75,5.75,0,0,0-1.72-2.46A2.4,2.4,0,0,0,40,55.88a2.51,2.51,0,0,0-2.54,1.38,5.73,5.73,0,0,0-1.09,4.87,8.08,8.08,0,0,0,1.13,3.17c.86,1.17,1.8,1.42,3.48,1C42.33,65.89,43.43,63.39,43.43,60.55Z"/><path class="cls-2" d="M48.47,61.26c.08-7.88,0-7.75,1-7.75s1.06.33,1.06,1.58c0,.5,0,.92.12.92a1.33,1.33,0,0,0,.47-.34c.23-.16.7-.58,1.09-.91a8.28,8.28,0,0,1,1.41-.92,2.29,2.29,0,0,1,1.32-.33c.55,0,.94.25.94.7a1.53,1.53,0,0,1-1.05,1.17A7.13,7.13,0,0,0,52,57.84a4.8,4.8,0,0,0-1.09,1.75,23.27,23.27,0,0,0-.39,4.59c0,2.12-.27,3.54-.74,3.92s-1.17.37-1.25.08C48.47,68.1,48.47,65,48.47,61.26Z"/><path class="cls-2" d="M58.35,67.26c0-.21,0-1.71,0-3.58s.12-6.38.16-10.17c.08-7.09.16-9.3.43-10.47.12-.5.16-.62.31-.62h.16c.9.12,1.05,1.29,1.21,9,.08,2.92.16,5.71.19,6.21l0,.92.47-.08c.9-.17,1.45-1.21,3.36-2.21,1.1-.59,2.7,0,1.64,1.29-1.29,1.33-2.19,1.67-3.55,3.09-.12.08-.12.16.11.41,1.22,1.17,1.29,1.59,4.07,4.84,1.36,1.62-.16,3.21-1.33,1.71-3.32-4.09-5-5.34-5-4.84s-.27,3.67-.35,4.17c-.24,1.38-.9,1.79-1.49,1A4.11,4.11,0,0,1,58.35,67.26Z"/></g></g></svg>